# xmcd CD database file
#
# Track frame offsets:
#	150
#	15976
#	28058
#	48252
#	66957
#	93928
#	110990
#	130631
#	149550
#	169491
#	184397
#
# Disc length: 2779 seconds
#
# Revision: 0
# Processed by: cddbd v1.5.2PL0 Copyright (c) Steve Scherf et al.
# Submitted via: CDex 1.70beta2
#
DISCID=9e0ad90b
DTITLE=Carlas Saxaffair - impuls
DYEAR=2009
DGENRE=Jazz
TTITLE0=Klangbilder
TTITLE1=Rhythm Change
TTITLE2=Schwärmerei
TTITLE3=Carlas Blues No. 5
TTITLE4=Hoffnung
TTITLE5=Carlas Blues No. 1
TTITLE6=Tangito
TTITLE7=Piece Rate
TTITLE8=Abendrot
TTITLE9=Souvenir
TTITLE10=Überraschung
EXTD=YEAR: 2009
EXTT0=
EXTT1=
EXTT2=
EXTT3=
EXTT4=
EXTT5=
EXTT6=
EXTT7=
EXTT8=
EXTT9=
EXTT10=
PLAYORDER=
